<svg xmlns="http://www.w3.org/2000/svg" viewBox="0 0 512 512" style="enable-background:new 0 0 512 512" xml:space="preserve"><path style="fill:#5b5d6e" d="M281.653 367.165H179.04l-8.551 76.96h119.716z"/><path style="fill:#464655" d="m285.454 401.37-3.801-34.205H179.04l-3.801 34.205z"/><path style="fill:#fff" d="M435.574 67.875H25.119c-9.446 0-17.102 7.656-17.102 17.102v239.432h444.66V84.977c-.001-9.446-7.657-17.102-17.103-17.102z"/><path style="fill:#707487" d="M25.119 375.716h410.455c9.446 0 17.102-7.656 17.102-17.102v-34.205H8.017v34.205c0 9.446 7.656 17.102 17.102 17.102z"/><path style="fill:#d5dced" d="M367.165 444.125H247.449c-9.446 0-17.102-7.656-17.102-17.102V238.898c0-9.446 7.656-17.102 17.102-17.102h119.716c9.446 0 17.102 7.656 17.102 17.102v188.125c0 9.446-7.656 17.102-17.102 17.102z"/><path style="fill:#5b5d6e" d="M486.881 290.205h-51.307c-9.446 0-17.102 7.656-17.102 17.102v119.716c0 9.446 7.656 17.102 17.102 17.102h51.307c9.446 0 17.102-7.656 17.102-17.102V307.307c0-9.446-7.656-17.102-17.102-17.102z"/><path style="fill:#fff" d="M230.347 256h153.921v153.921H230.347zM418.472 324.409h85.511v85.511h-85.511z"/><path d="M196.142 332.426a8.017 8.017 0 0 0 0-16.034H16.033V84.977c0-5.01 4.076-9.086 9.086-9.086h410.455c5.01 0 9.086 4.076 9.086 9.086V256a8.017 8.017 0 0 0 16.034 0V84.977c0-13.851-11.268-25.119-25.119-25.119H25.119C11.268 59.858 0 71.126 0 84.977v273.637c0 13.851 11.268 25.119 25.119 25.119h144.839l-6.547 52.376h-10.025a8.017 8.017 0 0 0 0 16.034h42.756a8.017 8.017 0 0 0 0-16.034H179.57l6.547-52.376h10.025a8.017 8.017 0 0 0 0-16.034H25.119c-5.01 0-9.086-4.076-9.086-9.086v-26.188h180.109z"/><path d="M367.165 213.779H247.449c-13.851 0-25.119 11.268-25.119 25.119v188.125c0 13.851 11.268 25.119 25.119 25.119h119.716c13.851 0 25.119-11.268 25.119-25.119V238.898c0-13.851-11.268-25.119-25.119-25.119zm-128.802 50.238H376.25v137.887H238.363V264.017zm9.086-34.205h119.716c5.01 0 9.086 4.076 9.086 9.086v9.086H238.363v-9.086c0-5.01 4.076-9.086 9.086-9.086zm119.716 206.297H247.449c-5.01 0-9.086-4.076-9.086-9.086v-9.086H376.25v9.086c.001 5.01-4.075 9.086-9.085 9.086zM486.881 282.188h-51.307c-13.851 0-25.119 11.268-25.119 25.119v119.716c0 13.851 11.268 25.119 25.119 25.119h51.307c13.851 0 25.119-11.268 25.119-25.119V307.307c0-13.851-11.268-25.119-25.119-25.119zm-60.392 50.238h69.478v69.478h-69.478v-69.478zm9.085-34.205h51.307c5.01 0 9.086 4.076 9.086 9.086v9.086h-69.478v-9.086c0-5.01 4.075-9.086 9.085-9.086zm51.307 137.888h-51.307c-5.01 0-9.086-4.076-9.086-9.086v-9.086h69.478v9.086c.001 5.01-4.075 9.086-9.085 9.086z"/></svg>