<svg xmlns="http://www.w3.org/2000/svg" xml:space="preserve" width="2048" height="2048" style="shape-rendering:geometricPrecision;text-rendering:geometricPrecision;image-rendering:optimizeQuality;fill-rule:evenodd;clip-rule:evenodd"><defs><style>.fil2,.fil3{fill:#5c5c5c;fill-rule:nonzero}.fil3{fill:#6b6b6b}</style></defs><g id="Layer_x0020_1"><path d="M310.264 823.651h1427.47c34.435 0 62.608 24.04 62.608 53.401V1738.6c0 29.36-28.185 53.4-62.608 53.4H310.264c-34.423 0-62.608-24.028-62.608-53.4V877.052c0-29.372 28.173-53.401 62.608-53.401z" style="fill:#888"/><path style="fill:#fff" d="m1186.78 1307.83-325.563 187.96v-375.93z"/><path class="fil2" d="M919.651 756.868V422.954h75.13v333.914z"/><path class="fil3" d="M1053.22 756.868V322.78h75.13v434.088z"/><path class="fil2" d="M1186.78 756.868V255.999h75.13v500.869z"/><path class="fil3" d="M786.088 756.868v-233.74h75.13v233.74z"/></g><path style="fill:none" d="M0 0h2048v2048H0z"/></svg>