<svg xmlns="http://www.w3.org/2000/svg" viewBox="0 0 48 48"><title>5-Content Marketing_3</title><g id="_5-Content_Marketing_3" data-name="5-Content Marketing_3"><path d="M39,42H1a1,1,0,0,1-1-1V17a1,1,0,0,1,1-1H5v2H2V40H38V18H35V16h4a1,1,0,0,1,1,1V41A1,1,0,0,1,39,42Z" fill="#525050"/><path d="M25,48H15a1,1,0,0,1-1-1V41a1,1,0,0,1,1-1H25a1,1,0,0,1,1,1v6A1,1,0,0,1,25,48Zm-9-2h8V42H16Z" fill="#525050"/><rect x="12" y="46" width="16" height="2" fill="#525050"/><rect x="1" y="32" width="38" height="2" fill="#525050"/><rect x="19" y="36" width="2" height="2" fill="#525050"/><path d="M47,43H39a1,1,0,0,1-1-1V11a1,1,0,0,1,1-1h8a1,1,0,0,1,1,1V42A1,1,0,0,1,47,43Zm-7-2h6V12H40Z" fill="#525050"/><path d="M45,48H41a3,3,0,0,1-3-3V42a1,1,0,0,1,1-1h8a1,1,0,0,1,1,1v3A3,3,0,0,1,45,48Zm-5-5v2a1,1,0,0,0,1,1h4a1,1,0,0,0,1-1V43Z" fill="#525050"/><rect x="42" y="11" width="2" height="31" fill="#525050"/><path d="M46.071,11.372,43,3.692l-3.071,7.68-1.858-.744,4-10a1,1,0,0,1,1.858,0l4,10Z" fill="#525050"/><path d="M20,30a1,1,0,0,1-.707-.293L14.586,25H9a5.006,5.006,0,0,1-5-5V5A5.006,5.006,0,0,1,9,0H31a5.006,5.006,0,0,1,5,5V20a5.006,5.006,0,0,1-5,5H21v4a1,1,0,0,1-1,1ZM9,2A3,3,0,0,0,6,5V20a3,3,0,0,0,3,3h6a1,1,0,0,1,.707.293L19,26.586V24a1,1,0,0,1,1-1H31a3,3,0,0,0,3-3V5a3,3,0,0,0-3-3Z" fill="#525050"/><rect x="10" y="14" width="20" height="2" fill="#525050"/><rect x="10" y="18" width="16" height="2" fill="#525050"/><path d="M29,12H11a1,1,0,0,1-1-1V7a1,1,0,0,1,1-1H29a1,1,0,0,1,1,1v4A1,1,0,0,1,29,12ZM12,10H28V8H12Z" fill="#525050"/></g></svg>